HIERARCHY
ROOT Root
{
  OFFSET 0.0 0.0 0.0
  CHANNELS 6 Xposition Yposition Zposition Zrotation Yrotation Xrotation
  JOINT Hips
  {
    OFFSET 0.0 100.0 0.0
    CHANNELS 6 Xposition Yposition Zposition Zrotation Yrotation Xrotation
    JOINT Spine1
    {
      OFFSET 5.003913 -0.037094 -0.013727
      CHANNELS 3 Zrotation Yrotation Xrotation
      JOINT Spine2
      {
        OFFSET 7.125363 -1e-06 0.0
        CHANNELS 3 Zrotation Yrotation Xrotation
        JOINT Chest
        {
          OFFSET 7.594027 1e-06 0.0
          CHANNELS 3 Zrotation Yrotation Xrotation
          JOINT Neck1
          {
            OFFSET 26.313086 -0.460272 -0.181672
            CHANNELS 3 Zrotation Yrotation Xrotation
            JOINT Neck2
            {
              OFFSET 8.045911 0.0 0.0
              CHANNELS 3 Zrotation Yrotation Xrotation
              JOINT Head
              {
                OFFSET 6.432774 0.0 0.0
                CHANNELS 3 Zrotation Yrotation Xrotation
                JOINT HeadEnd
                {
                  OFFSET 16.169773 0.06451 0.00362
                  CHANNELS 3 Zrotation Yrotation Xrotation
                }
                JOINT Jaw
                {
                  OFFSET 0.108741 3.12938 0.002639
                  CHANNELS 3 Zrotation Yrotation Xrotation
                }
                JOINT LeftEye
                {
                  OFFSET 4.45173 8.166359 3.206392
                  CHANNELS 3 Zrotation Yrotation Xrotation
                }
                JOINT RightEye
                {
                  OFFSET 4.436895 8.135758 -3.222429
                  CHANNELS 3 Zrotation Yrotation Xrotation
                }
              }
            }
          }
          JOINT LeftShoulder
          {
            OFFSET 23.218927 5.195579 1.621656
            CHANNELS 3 Zrotation Yrotation Xrotation
            JOINT LeftArm
            {
              OFFSET 15.902118 2e-06 -2e-06
              CHANNELS 3 Zrotation Yrotation Xrotation
              JOINT LeftForeArm
              {
                OFFSET 28.739307 0.0 -1e-06
                CHANNELS 3 Zrotation Yrotation Xrotation
                JOINT LeftHand
                {
                  OFFSET 27.093981 -4e-06 0.0
                  CHANNELS 3 Zrotation Yrotation Xrotation
                  JOINT LeftHandThumb1
                  {
                    OFFSET 2.276781 3.380274 0.83384
                    CHANNELS 3 Zrotation Yrotation Xrotation
                    JOINT LeftHandThumb2
                    {
                      OFFSET 4.705309 -1e-06 -1e-06
                      CHANNELS 3 Zrotation Yrotation Xrotation
                      JOINT LeftHandThumb3
                      {
                        OFFSET 2.798515 0.0 3e-06
                        CHANNELS 3 Zrotation Yrotation Xrotation
                        JOINT LeftHandThumbEnd
                        {
                          OFFSET 3.180793 4e-06 -4e-06
                          CHANNELS 3 Zrotation Yrotation Xrotation
                        }
                      }
                    }
                  }
                  JOINT LeftHandIndex1
                  {
                    OFFSET 3.247786 2.352677 0.137192
                    CHANNELS 3 Zrotation Yrotation Xrotation
                    JOINT LeftHandIndex2
                    {
                      OFFSET 6.367095 1e-06 0.0
                      CHANNELS 3 Zrotation Yrotation Xrotation
                      JOINT LeftHandIndex3
                      {
                        OFFSET 3.662364 0.0 0.0
                        CHANNELS 3 Zrotation Yrotation Xrotation
                        JOINT LeftHandIndex4
                        {
                          OFFSET 2.329242 4e-06 -4e-06
                          CHANNELS 3 Zrotation Yrotation Xrotation
                          JOINT LeftHandIndexEnd
                          {
                            OFFSET 2.767823 1e-06 0.0
                            CHANNELS 3 Zrotation Yrotation Xrotation
                          }
                        }
                      }
                    }
                  }
                  JOINT LeftHandMiddle1
                  {
                    OFFSET 3.163612 0.945023 -0.406112
                    CHANNELS 3 Zrotation Yrotation Xrotation
                    JOINT LeftHandMiddle2
                    {
                      OFFSET 6.276789 3e-06 0.0
                      CHANNELS 3 Zrotation Yrotation Xrotation
                      JOINT LeftHandMiddle3
                      {
                        OFFSET 4.35652 -1e-06 4e-06
                        CHANNELS 3 Zrotation Yrotation Xrotation
                        JOINT LeftHandMiddle4
                        {
                          OFFSET 2.996877 0.0 8e-06
                          CHANNELS 3 Zrotation Yrotation Xrotation
                          JOINT LeftHandMiddleEnd
                          {
                            OFFSET 2.323256 3e-06 -4e-06
                            CHANNELS 3 Zrotation Yrotation Xrotation
                          }
                        }
                      }
                    }
                  }
                  JOINT LeftHandRing1
                  {
                    OFFSET 2.882606 -0.309162 0.107445
                    CHANNELS 3 Zrotation Yrotation Xrotation
                    JOINT LeftHandRing2
                    {
                      OFFSET 6.033198 0.0 4e-06
                      CHANNELS 3 Zrotation Yrotation Xrotation
                      JOINT LeftHandRing3
                      {
                        OFFSET 4.350578 3e-06 0.0
                        CHANNELS 3 Zrotation Yrotation Xrotation
                        JOINT LeftHandRing4
                        {
                          OFFSET 2.651321 2e-06 -7e-06
                          CHANNELS 3 Zrotation Yrotation Xrotation
                          JOINT LeftHandRingEnd
                          {
                            OFFSET 1.937663 1e-06 -4e-06
                            CHANNELS 3 Zrotation Yrotation Xrotation
                          }
                        }
                      }
                    }
                  }
                  JOINT LeftHandPinky1
                  {
                    OFFSET 2.865315 -1.525436 0.575687
                    CHANNELS 3 Zrotation Yrotation Xrotation
                    JOINT LeftHandPinky2
                    {
                      OFFSET 5.54936 1e-06 -8e-06
                      CHANNELS 3 Zrotation Yrotation Xrotation
                      JOINT LeftHandPinky3
                      {
                        OFFSET 3.070974 0.0 -4e-06
                        CHANNELS 3 Zrotation Yrotation Xrotation
                        JOINT LeftHandPinky4
                        {
                          OFFSET 1.549672 1e-06 0.0
                          CHANNELS 3 Zrotation Yrotation Xrotation
                          JOINT LeftHandPinkyEnd
                          {
                            OFFSET 1.952123 0.0 0.0
                            CHANNELS 3 Zrotation Yrotation Xrotation
                          }
                        }
                      }
                    }
                  }
                }
              }
            }
          }
          JOINT RightShoulder
          {
            OFFSET 23.161716 5.296122 -1.380114
            CHANNELS 3 Zrotation Yrotation Xrotation
            JOINT RightArm
            {
              OFFSET -16.027195 -2e-06 1.1e-05
              CHANNELS 3 Zrotation Yrotation Xrotation
              JOINT RightForeArm
              {
                OFFSET -28.736639 4e-06 2e-06
                CHANNELS 3 Zrotation Yrotation Xrotation
                JOINT RightHand
                {
                  OFFSET -27.133619 6e-06 0.0
                  CHANNELS 3 Zrotation Yrotation Xrotation
                  JOINT RightHandThumb1
                  {
                    OFFSET -2.274328 -3.351035 -0.83067
                    CHANNELS 3 Zrotation Yrotation Xrotation
                    JOINT RightHandThumb2
                    {
                      OFFSET -4.703594 -3e-06 2e-06
                      CHANNELS 3 Zrotation Yrotation Xrotation
                      JOINT RightHandThumb3
                      {
                        OFFSET -2.794935 -4e-06 -3e-06
                        CHANNELS 3 Zrotation Yrotation Xrotation
                        JOINT RightHandThumbEnd
                        {
                          OFFSET -3.183852 4e-06 1e-06
                          CHANNELS 3 Zrotation Yrotation Xrotation
                        }
                      }
                    }
                  }
                  JOINT RightHandIndex1
                  {
                    OFFSET -3.253496 -2.33755 -0.127667
                    CHANNELS 3 Zrotation Yrotation Xrotation
                    JOINT RightHandIndex2
                    {
                      OFFSET -6.344434 0.0 0.0
                      CHANNELS 3 Zrotation Yrotation Xrotation
                      JOINT RightHandIndex3
                      {
                        OFFSET -3.654871 0.0 -8e-06
                        CHANNELS 3 Zrotation Yrotation Xrotation
                        JOINT RightHandIndex4
                        {
                          OFFSET -2.327586 -1e-06 0.0
                          CHANNELS 3 Zrotation Yrotation Xrotation
                          JOINT RightHandIndexEnd
                          {
                            OFFSET -2.770001 3e-06 8e-06
                            CHANNELS 3 Zrotation Yrotation Xrotation
                          }
                        }
                      }
                    }
                  }
                  JOINT RightHandMiddle1
                  {
                    OFFSET -3.168223 -0.944764 0.411762
                    CHANNELS 3 Zrotation Yrotation Xrotation
                    JOINT RightHandMiddle2
                    {
                      OFFSET -6.266691 -1e-06 -4e-06
                      CHANNELS 3 Zrotation Yrotation Xrotation
                      JOINT RightHandMiddle3
                      {
                        OFFSET -4.348901 0.0 0.0
                        CHANNELS 3 Zrotation Yrotation Xrotation
                        JOINT RightHandMiddle4
                        {
                          OFFSET -3.00024 2e-06 -4e-06
                          CHANNELS 3 Zrotation Yrotation Xrotation
                          JOINT RightHandMiddleEnd
                          {
                            OFFSET -2.321477 -4e-06 -4e-06
                            CHANNELS 3 Zrotation Yrotation Xrotation
                          }
                        }
                      }
                    }
                  }
                  JOINT RightHandRing1
                  {
                    OFFSET -2.885654 0.293261 -0.119232
                    CHANNELS 3 Zrotation Yrotation Xrotation
                    JOINT RightHandRing2
                    {
                      OFFSET -6.032835 -1e-06 -4e-06
                      CHANNELS 3 Zrotation Yrotation Xrotation
                      JOINT RightHandRing3
                      {
                        OFFSET -4.33881 0.0 -4e-06
                        CHANNELS 3 Zrotation Yrotation Xrotation
                        JOINT RightHandRing4
                        {
                          OFFSET -2.654903 -4e-06 -4e-06
                          CHANNELS 3 Zrotation Yrotation Xrotation
                          JOINT RightHandRingEnd
                          {
                            OFFSET -1.935122 0.0 4e-06
                            CHANNELS 3 Zrotation Yrotation Xrotation
                          }
                        }
                      }
                    }
                  }
                  JOINT RightHandPinky1
                  {
                    OFFSET -2.866241 1.503904 -0.60527
                    CHANNELS 3 Zrotation Yrotation Xrotation
                    JOINT RightHandPinky2
                    {
                      OFFSET -5.553177 -2e-06 0.0
                      CHANNELS 3 Zrotation Yrotation Xrotation
                      JOINT RightHandPinky3
                      {
                        OFFSET -3.062664 -1e-06 -4e-06
                        CHANNELS 3 Zrotation Yrotation Xrotation
                        JOINT RightHandPinky4
                        {
                          OFFSET -1.546529 2e-06 4e-06
                          CHANNELS 3 Zrotation Yrotation Xrotation
                          JOINT RightHandPinkyEnd
                          {
                            OFFSET -1.952341 0.0 -4e-06
                            CHANNELS 3 Zrotation Yrotation Xrotation
                          }
                        }
                      }
                    }
                  }
                }
              }
            }
          }
        }
      }
    }
    JOINT LeftLeg
    {
      OFFSET -8.443107 2.567604 10.043214
      CHANNELS 3 Zrotation Yrotation Xrotation
      JOINT LeftShin
      {
        OFFSET 43.229198 1e-06 -1e-06
        CHANNELS 3 Zrotation Yrotation Xrotation
        JOINT LeftFoot
        {
          OFFSET 42.298611 1e-06 1e-06
          CHANNELS 3 Zrotation Yrotation Xrotation
          JOINT LeftToeBase
          {
            OFFSET 14.165858 1e-06 0.0
            CHANNELS 3 Zrotation Yrotation Xrotation
            JOINT LeftToeEnd
            {
              OFFSET 6.7141 -0.234461 0.0
              CHANNELS 3 Zrotation Yrotation Xrotation
            }
          }
        }
      }
    }
    JOINT RightLeg
    {
      OFFSET -8.303923 2.592729 -10.047278
      CHANNELS 3 Zrotation Yrotation Xrotation
      JOINT RightShin
      {
        OFFSET -43.369682 0.0 1e-06
        CHANNELS 3 Zrotation Yrotation Xrotation
        JOINT RightFoot
        {
          OFFSET -42.260784 4e-06 2e-06
          CHANNELS 3 Zrotation Yrotation Xrotation
          JOINT RightToeBase
          {
            OFFSET -14.222245 -2e-06 -1e-06
            CHANNELS 3 Zrotation Yrotation Xrotation
            JOINT RightToeEnd
            {
              OFFSET -6.660062 0.232574 -2e-06
              CHANNELS 3 Zrotation Yrotation Xrotation
            }
          }
        }
      }
    }
  }
}
MOTION
Frames: 4
Frame Time: 0.03333333333333333
0.0 0.0 0.0 0.0 -0.0 0.0 -22.882877 48.785027 123.989975 103.190582 -56.015133 76.81678 10.940113 -1.415701 -0.073193 -5.458889 -1.174963 -0.917929 20.875555 0.202984 -3.15802 30.439865 1.114543 2.387414 -2.38306 -0.737718 -0.521719 -22.338818 -2.423822 -2.132247 6e-06 -0.0 -0.0 -0.256032 0.025452 -0.006225 0.061273 0.024026 0.136852 0.107835 0.025423 -0.145746 -58.140266 -74.04409 71.468529 80.200912 1.472491 -9.882102 33.649117 -0.589636 0.781196 -29.733498 73.159752 -20.237221 17.636639 -26.322737 52.411205 -19.466665 -14.395598 29.410395 -1e-06 -8.774822 -3e-06 16.038942 -18.642254 6.535277 -0.609777 -1.795653 -3.889328 -4.80709 -11.046814 -2.937851 3e-06 -20.976019 -1e-06 -5.01997 -25.033562 -4.031882 6e-06 1e-06 1e-06 -10.634537 -5.68697 -3.565589 10.573275 -17.922955 -3.113901 2e-06 -13.821213 0.0 -0.501776 -31.181507 -4.02702 -11.771671 -60.345337 8.868941 -13.982718 -7.150199 -2.875043 13.772733 -8.401495 -3.218242 0.347733 -34.211555 0.771653 -0.963029 -17.733372 2.62102 0.0 0.0 0.0 -17.346424 -20.095221 -4.201783 21.757566 -1.638375 3.866429 1e-06 -6.338823 -0.0 -1.697589 -22.591749 -6.194008 -0.0 -5e-06 -2e-06 134.388718 -80.538887 58.311298 76.871864 1.804952 -38.011333 43.055264 -1.517047 -1.844575 -22.54343 70.302658 -7.643548 22.182116 -20.3759 49.933338 -16.70182 -16.743534 28.476545 -3e-06 -12.690605 0.0 15.782612 -17.523312 2.927485 -0.105921 -1.513857 -4.275884 -5.039042 -5.612873 -2.953557 6e-06 -11.020528 -3e-06 -6.111297 -15.895339 -3.840472 -2e-06 -0.0 -1e-06 -10.283373 -5.680289 -4.34184 11.028298 -11.302409 -2.372634 -1.384269 -14.238585 -6.320124 -0.625434 -26.924194 -3.827604 -3.375156 -49.723042 -3.961828 -13.708524 -7.363478 -3.72094 18.141157 -14.052743 -3.242678 5e-06 -18.787275 -2e-06 -0.429711 -8.456047 2.555506 1e-06 2e-06 -1e-06 -15.923538 -20.09449 -5.473586 30.419218 -7.19083 1.735925 2e-06 -8.162928 -1e-06 -1.8619 -22.861479 -6.167943 -0.0 -3e-06 1e-06 131.987289 -19.740501 -2.07351 107.272858 -2.849976 0.486903 -66.030304 20.316193 -7.777302 -27.51292 1.792034 2.324163 -0.999999 0.0 -0.0 -54.680771 -8.401756 0.432778 101.551086 -1.760139 0.571645 -46.088017 35.406197 2.870298 -36.398689 0.799012 0.992281 -1.000002 -1e-06 1e-06 
0.0 0.0 0.0 0.0 -0.0 0.0 -23.25651 49.019493 124.768898 104.123093 -55.745216 76.921844 11.313332 -1.615529 -0.04501 -5.288964 -1.229352 -0.936583 21.056154 -0.392081 -3.228685 30.23415 2.200102 2.491486 -2.366489 -0.919378 -0.946746 -22.767454 -2.693568 -2.40506 6e-06 -0.0 -0.0 -0.244499 0.033479 -0.005652 0.040962 0.009842 0.129948 0.0831 0.052739 -0.137219 -57.387405 -74.4123 70.805321 80.437241 1.702546 -9.99383 33.932098 -0.463111 0.621197 -29.960632 73.570045 -19.7283 17.636625 -26.322729 52.41119 -19.466663 -14.3956 29.410393 -0.0 -8.774822 -1e-06 15.969912 -18.597567 6.676227 -0.609776 -1.795653 -3.889328 -4.807089 -11.046812 -2.93785 3e-06 -20.976019 -1e-06 -5.01997 -25.03356 -4.031881 6e-06 0.0 1e-06 -10.634533 -5.68697 -3.565586 10.573272 -17.922951 -3.113901 2e-06 -13.821209 -0.0 -0.501778 -31.181501 -4.027016 -11.716447 -60.469009 8.868218 -13.982714 -7.150197 -2.875041 13.772728 -8.401493 -3.218242 0.347733 -34.211544 0.771653 -0.963029 -17.733366 2.621018 0.0 -0.0 -0.0 -17.346416 -20.095215 -4.20178 21.757557 -1.638375 3.866426 1e-06 -6.338823 0.0 -1.69759 -22.591743 -6.194007 -0.0 -5e-06 -1e-06 137.69014 -80.172592 54.727924 76.170273 5.130219 -37.993217 39.417759 -1.753423 -1.519577 -27.781834 66.881058 -12.901559 22.182106 -20.375898 49.933327 -16.701813 -16.743525 28.476534 -4e-06 -12.690601 -0.0 15.843559 -17.510126 2.778245 -0.10592 -1.513855 -4.275881 -5.039042 -5.612872 -2.953557 5e-06 -11.020526 -2e-06 -6.111295 -15.89533 -3.840469 -0.0 -1e-06 -1e-06 -10.283369 -5.680289 -4.341839 11.028296 -11.302406 -2.372633 -1.384267 -14.238579 -6.320122 -0.625436 -26.924191 -3.827601 -3.389607 -49.599297 -3.962469 -13.708526 -7.363475 -3.72094 18.14115 -14.052739 -3.242676 6e-06 -18.787271 -3e-06 -0.429711 -8.456044 2.555503 -0.0 -1e-06 -1e-06 -15.923534 -20.094482 -5.473586 30.41921 -7.190826 1.735924 2e-06 -8.162922 2e-06 -1.861902 -22.861473 -6.167945 -1e-06 -2e-06 -2e-06 127.040184 -18.765144 -0.46465 114.561455 -2.204488 0.454653 -69.778351 19.802162 -6.714116 -27.534302 1.807428 2.278707 -0.999999 0.0 -1e-06 -53.42588 -9.486622 0.129774 100.558701 -1.674752 0.541386 -47.067623 35.738857 1.650708 -36.551464 0.760045 1.043365 -1.000002 -0.0 -0.0 
0.0 0.0 0.0 0.0 -0.0 0.0 -23.603546 49.276318 125.609459 105.222252 -55.494495 76.871803 11.645722 -1.819705 -0.070065 -5.191655 -1.350004 -0.977659 21.403641 -0.962377 -3.294588 29.889929 3.09221 2.590493 -2.374375 -0.980165 -1.276291 -22.912237 -2.907129 -2.670793 6e-06 0.0 0.0 -0.233077 0.040185 -0.008457 -0.019558 0.010993 0.107272 0.018119 0.063262 -0.119261 -56.652039 -74.868164 70.135536 80.540123 1.970449 -10.315824 34.14782 -0.486851 0.454951 -29.634846 74.026184 -18.924921 17.636625 -26.322733 52.411198 -19.466665 -14.3956 29.410395 -2e-06 -8.774822 -1e-06 15.928505 -18.549641 6.794253 -0.609776 -1.795654 -3.889328 -4.807086 -11.046811 -2.93785 6e-06 -20.976015 -1e-06 -5.019969 -25.033558 -4.03188 6e-06 1e-06 1e-06 -10.634533 -5.686968 -3.565587 10.573276 -17.922951 -3.113902 4e-06 -13.821209 0.0 -0.501775 -31.181501 -4.027016 -11.767767 -60.56179 8.908832 -13.982712 -7.150196 -2.875042 13.77273 -8.401495 -3.218243 0.347737 -34.211555 0.771653 -0.963027 -17.73337 2.621019 0.0 0.0 0.0 -17.346415 -20.095217 -4.201783 21.757557 -1.638378 3.866426 2e-06 -6.338823 1e-06 -1.697587 -22.591745 -6.194006 -0.0 -3e-06 -1e-06 140.534225 -79.838058 51.727924 75.326195 7.449036 -37.355682 36.707325 -1.987557 -1.188297 -31.766735 64.05632 -16.853092 22.182117 -20.375887 49.933319 -16.701811 -16.743528 28.476528 -4e-06 -12.690598 -0.0 16.011074 -17.497242 2.576304 -0.105918 -1.513856 -4.275882 -5.039041 -5.612869 -2.953557 8e-06 -11.020518 -2e-06 -6.111296 -15.895329 -3.840471 -2e-06 -1e-06 -2e-06 -10.283369 -5.680287 -4.341839 11.028297 -11.302404 -2.372634 -1.384268 -14.238575 -6.320121 -0.625433 -26.924183 -3.827601 -3.430596 -49.52298 -4.026801 -13.708524 -7.363476 -3.720941 18.141155 -14.052736 -3.242676 7e-06 -18.787266 -2e-06 -0.429711 -8.456039 2.555502 0.0 -1e-06 0.0 -15.923536 -20.094481 -5.473587 30.419214 -7.190824 1.735927 3e-06 -8.162921 0.0 -1.8619 -22.86146 -6.167944 0.0 -3e-06 -0.0 121.895844 -17.502174 0.691757 120.787582 -1.588617 0.502932 -73.503166 19.869434 -5.717083 -28.116131 1.842318 2.169031 -1.0 0.0 -0.0 -52.101749 -10.560826 -0.253574 99.423401 -1.68355 0.527828 -48.110752 35.787487 0.333167 -36.813118 0.740404 1.089145 -1.000002 -1e-06 2e-06 
0.0 0.0 0.0 0.0 -0.0 0.0 -23.902102 49.467266 126.499542 106.252357 -55.085655 76.689293 11.986178 -2.029369 -0.124977 -5.119259 -1.463698 -0.991718 21.834156 -1.504995 -3.339218 29.60479 3.739114 2.655301 -2.39242 -0.963256 -1.453053 -22.872812 -3.048613 -2.889341 6e-06 0.0 -0.0 -0.222669 0.044505 -0.012486 -0.084986 0.025978 0.077576 -0.045594 0.056349 -0.098572 -55.98634 -75.359169 69.528305 80.556229 2.149763 -10.888043 34.184261 -0.604489 0.331416 -27.840736 74.421127 -17.237288 17.636633 -26.322741 52.411201 -19.466665 -14.3956 29.410395 -2e-06 -8.774824 -2e-06 15.902899 -18.498909 6.819351 -0.609777 -1.795654 -3.889328 -4.807089 -11.046811 -2.93785 5e-06 -20.976019 -1e-06 -5.019972 -25.033562 -4.031881 6e-06 0.0 2e-06 -10.634537 -5.686972 -3.565588 10.573277 -17.922955 -3.113901 3e-06 -13.821213 1e-06 -0.501776 -31.181505 -4.027016 -11.830843 -60.524746 8.917827 -13.982716 -7.150202 -2.875041 13.772733 -8.401491 -3.218242 0.347735 -34.211555 0.771655 -0.963028 -17.733372 2.62102 0.0 0.0 -0.0 -17.346424 -20.095219 -4.20178 21.757566 -1.638379 3.866428 1e-06 -6.338824 0.0 -1.697589 -22.591749 -6.194007 0.0 -4e-06 -3e-06 142.230301 -79.572243 49.978428 74.546082 8.686595 -36.738007 35.243046 -2.071654 -0.954802 -34.120171 62.495193 -19.383774 22.182114 -20.375895 49.933327 -16.701813 -16.74353 28.47653 -2e-06 -12.690601 0.0 16.15587 -17.466314 2.462222 -0.105922 -1.513856 -4.275882 -5.039042 -5.612873 -2.953558 7e-06 -11.020525 -3e-06 -6.111301 -15.89533 -3.840469 -2e-06 -1e-06 -0.0 -10.283368 -5.680287 -4.341839 11.02829 -11.302404 -2.372632 -1.384272 -14.23858 -6.320123 -0.625437 -26.924187 -3.827601 -3.485994 -49.503159 -4.073611 -13.708526 -7.363475 -3.720939 18.141148 -14.052739 -3.242675 6e-06 -18.787271 -2e-06 -0.429712 -8.456039 2.555501 -1e-06 -1e-06 0.0 -15.923532 -20.094482 -5.473583 30.41921 -7.190824 1.735925 2e-06 -8.162925 2e-06 -1.861904 -22.861467 -6.16794 1e-06 -2e-06 -0.0 117.120735 -16.281113 1.4392 125.675903 -1.103234 0.553401 -76.75164 20.675365 -5.017984 -29.004505 1.867119 2.008288 -0.999999 -0.0 -0.0 -50.645576 -11.520901 -0.5927 98.142769 -1.782745 0.540424 -48.221809 35.974102 -0.383577 -36.708851 0.733473 1.126222 -1.000003 -1e-06 -1e-06 
